<svg width="80" height="80" viewBox="0 0 80 80" fill="none" xmlns="http://www.w3.org/2000/svg">
<path d="M23.0797 22.6758C19.8365 22.6758 18.2148 25.919 18.2148 32.4055" stroke="url(#paint0_linear_2676_73)" stroke-width="2.5" stroke-linecap="round"/>
<path d="M57.1367 22.6758C60.38 22.6758 62.0016 25.919 62.0016 32.4055" stroke="url(#paint1_linear_2676_73)" stroke-width="2.5" stroke-linecap="round"/>
<path opacity="0.85" d="M25.5117 22.6758L27.9442 39.7028C27.9442 42.9461 29.5658 44.5677 32.809 44.5677H47.4036C50.6469 44.5677 52.2685 42.9461 52.2685 39.7028L54.7009 22.6758H25.5117Z" fill="url(#paint2_linear_2676_73)" stroke="url(#paint3_linear_2676_73)" stroke-width="2" stroke-linejoin="round"/>
<path opacity="0.2" d="M36.46 32.4055C39.8185 32.4055 42.5411 30.2274 42.5411 27.5406C42.5411 24.8539 39.8185 22.6758 36.46 22.6758C33.1015 22.6758 30.3789 24.8539 30.3789 27.5406C30.3789 30.2274 33.1015 32.4055 36.46 32.4055Z" fill="white"/>
<path opacity="0.8" d="M42.542 44.5674H37.6772C37.0055 44.5674 36.4609 45.1119 36.4609 45.7836V50.6485C36.4609 51.3202 37.0055 51.8647 37.6772 51.8647H42.542C43.2137 51.8647 43.7582 51.3202 43.7582 50.6485V45.7836C43.7582 45.1119 43.2137 44.5674 42.542 44.5674Z" fill="url(#paint4_linear_2676_73)"/>
<path opacity="0.8" d="M40.1079 59.1623C50.8551 59.1623 59.5674 56.9843 59.5674 54.2975C59.5674 51.6107 50.8551 49.4326 40.1079 49.4326C29.3607 49.4326 20.6484 51.6107 20.6484 54.2975C20.6484 56.9843 29.3607 59.1623 40.1079 59.1623Z" fill="url(#paint5_linear_2676_73)"/>
<path opacity="0.3" d="M40.1079 56.7299C50.8551 56.7299 59.5674 55.0964 59.5674 53.0813C59.5674 51.0662 50.8551 49.4326 40.1079 49.4326C29.3607 49.4326 20.6484 51.0662 20.6484 53.0813C20.6484 55.0964 29.3607 56.7299 40.1079 56.7299Z" fill="url(#paint6_linear_2676_73)"/>
<g opacity="0.4">
<path d="M27.9453 53.0811C36.0534 55.5135 44.1615 55.5135 52.2696 53.0811Z" fill="black"/>
<path d="M27.9453 53.0811C36.0534 55.5135 44.1615 55.5135 52.2696 53.0811" stroke="url(#paint7_linear_2676_73)"/>
<path d="M30.3789 54.2974C36.8654 55.919 43.3519 55.919 49.8384 54.2974Z" fill="black"/>
<path d="M30.3789 54.2974C36.8654 55.919 43.3519 55.919 49.8384 54.2974" stroke="url(#paint8_linear_2676_73)"/>
</g>
<path opacity="0.9" d="M54.7022 11.7295L56.5265 15.9862H60.7833L57.7427 19.0268L58.9589 23.8917L54.7022 20.8511L50.4454 23.8917L51.6616 19.0268L48.6211 15.9862H52.8779L54.7022 11.7295Z" fill="url(#paint9_linear_2676_73)"/>
<path opacity="0.5" d="M53.4883 14.1621L54.7045 15.9864L55.9207 14.1621" fill="white"/>
<path opacity="0.25" d="M30.3784 33.6216C37.7671 33.6216 43.7568 26.5429 43.7568 17.8108C43.7568 9.07874 37.7671 2 30.3784 2C22.9897 2 17 9.07874 17 17.8108C17 26.5429 22.9897 33.6216 30.3784 33.6216Z" fill="white"/>
<defs>
<linearGradient id="paint0_linear_2676_73" x1="18.2148" y1="22.6758" x2="25.9986" y2="26.5677" gradientUnits="userSpaceOnUse">
<stop stop-color="#0066FF"/>
<stop offset="1" stop-color="#0099FF"/>
</linearGradient>
<linearGradient id="paint1_linear_2676_73" x1="57.1367" y1="22.6758" x2="64.9205" y2="26.5677" gradientUnits="userSpaceOnUse">
<stop stop-color="#0066FF"/>
<stop offset="1" stop-color="#0099FF"/>
</linearGradient>
<linearGradient id="paint2_linear_2676_73" x1="25.5117" y1="22.6758" x2="46.5279" y2="50.6974" gradientUnits="userSpaceOnUse">
<stop stop-color="#0066FF"/>
<stop offset="1" stop-color="#0099FF"/>
</linearGradient>
<linearGradient id="paint3_linear_2676_73" x1="25.5117" y1="22.6758" x2="46.5279" y2="50.6974" gradientUnits="userSpaceOnUse">
<stop stop-color="#0066FF"/>
<stop offset="1" stop-color="#0099FF"/>
</linearGradient>
<linearGradient id="paint4_linear_2676_73" x1="36.4609" y1="44.5674" x2="43.7582" y2="51.8647" gradientUnits="userSpaceOnUse">
<stop stop-color="#0066FF"/>
<stop offset="1" stop-color="#0099FF"/>
</linearGradient>
<linearGradient id="paint5_linear_2676_73" x1="20.6484" y1="49.4326" x2="25.2271" y2="67.7474" gradientUnits="userSpaceOnUse">
<stop stop-color="#0066FF"/>
<stop offset="1" stop-color="#0099FF"/>
</linearGradient>
<linearGradient id="paint6_linear_2676_73" x1="20.6484" y1="49.4326" x2="23.292" y2="63.5315" gradientUnits="userSpaceOnUse">
<stop stop-color="#0066FF"/>
<stop offset="1" stop-color="#0099FF"/>
</linearGradient>
<linearGradient id="paint7_linear_2676_73" x1="27.9453" y1="53.0811" x2="28.2174" y2="56.7093" gradientUnits="userSpaceOnUse">
<stop stop-color="#0066FF"/>
<stop offset="1" stop-color="#0099FF"/>
</linearGradient>
<linearGradient id="paint8_linear_2676_73" x1="30.3789" y1="54.2974" x2="30.5303" y2="56.7203" gradientUnits="userSpaceOnUse">
<stop stop-color="#0066FF"/>
<stop offset="1" stop-color="#0099FF"/>
</linearGradient>
<linearGradient id="paint9_linear_2676_73" x1="48.6211" y1="11.7295" x2="60.7833" y2="23.8917" gradientUnits="userSpaceOnUse">
<stop stop-color="#00CCFF"/>
<stop offset="1" stop-color="#0088FF"/>
</linearGradient>
</defs>
</svg>
