<svg width="80" height="80" viewBox="0 0 80 80" fill="none" xmlns="http://www.w3.org/2000/svg">
<path d="M62 21H18C16.3431 21 15 22.3431 15 24V62C15 63.6569 16.3431 65 18 65H62C63.6569 65 65 63.6569 65 62V24C65 22.3431 63.6569 21 62 21Z" stroke="url(#paint0_linear_2676_71)" stroke-width="2.5" stroke-linecap="round"/>
<path opacity="0.2" d="M62 21H18C16.3431 21 15 22.3431 15 24V30C15 31.6569 16.3431 33 18 33H62C63.6569 33 65 31.6569 65 30V24C65 22.3431 63.6569 21 62 21Z" fill="url(#paint1_linear_2676_71)"/>
<path opacity="0.4" d="M15 33H65" stroke="url(#paint2_linear_2676_71)" stroke-width="1.5"/>
<path opacity="0.3" d="M29 33V65" stroke="url(#paint3_linear_2676_71)"/>
<path opacity="0.3" d="M43 33V65" stroke="url(#paint4_linear_2676_71)"/>
<path opacity="0.3" d="M15 47H65" stroke="url(#paint5_linear_2676_71)"/>
<path d="M20 41L23 44L26 39" stroke="url(#paint6_linear_2676_71)" stroke-width="2.5" stroke-linecap="round" stroke-linejoin="round"/>
<path d="M48 41L51 44L54 39" stroke="url(#paint7_linear_2676_71)" stroke-width="2.5" stroke-linecap="round" stroke-linejoin="round"/>
<path opacity="0.6" d="M24 15H21C20.4477 15 20 15.4477 20 16V20C20 20.5523 20.4477 21 21 21H24C24.5523 21 25 20.5523 25 20V16C25 15.4477 24.5523 15 24 15Z" fill="url(#paint8_linear_2676_71)"/>
<path opacity="0.6" d="M64 15H61C60.4477 15 60 15.4477 60 16V20C60 20.5523 60.4477 21 61 21H64C64.5523 21 65 20.5523 65 20V16C65 15.4477 64.5523 15 64 15Z" fill="url(#paint9_linear_2676_71)"/>
<path opacity="0.25" d="M30 36C35.5228 36 40 32.4183 40 28C40 23.5817 35.5228 20 30 20C24.4772 20 20 23.5817 20 28C20 32.4183 24.4772 36 30 36Z" fill="white"/>
<defs>
<linearGradient id="paint0_linear_2676_71" x1="15" y1="21" x2="58.6429" y2="70.5942" gradientUnits="userSpaceOnUse">
<stop stop-color="#00CCFF"/>
<stop offset="1" stop-color="#0088FF"/>
</linearGradient>
<linearGradient id="paint1_linear_2676_71" x1="15" y1="21" x2="20.4463" y2="43.6929" gradientUnits="userSpaceOnUse">
<stop stop-color="#00CCFF"/>
<stop offset="1" stop-color="#0088FF"/>
</linearGradient>
<linearGradient id="paint2_linear_2676_71" x1="15" y1="33" x2="15.04" y2="34.9992" gradientUnits="userSpaceOnUse">
<stop stop-color="#00CCFF"/>
<stop offset="1" stop-color="#0088FF"/>
</linearGradient>
<linearGradient id="paint3_linear_2676_71" x1="29" y1="33" x2="30.998" y2="33.0624" gradientUnits="userSpaceOnUse">
<stop stop-color="#00CCFF"/>
<stop offset="1" stop-color="#0088FF"/>
</linearGradient>
<linearGradient id="paint4_linear_2676_71" x1="43" y1="33" x2="44.998" y2="33.0624" gradientUnits="userSpaceOnUse">
<stop stop-color="#00CCFF"/>
<stop offset="1" stop-color="#0088FF"/>
</linearGradient>
<linearGradient id="paint5_linear_2676_71" x1="15" y1="47" x2="15.04" y2="48.9992" gradientUnits="userSpaceOnUse">
<stop stop-color="#00CCFF"/>
<stop offset="1" stop-color="#0088FF"/>
</linearGradient>
<linearGradient id="paint6_linear_2676_71" x1="20" y1="39" x2="24.918" y2="44.9016" gradientUnits="userSpaceOnUse">
<stop stop-color="#00CCFF"/>
<stop offset="1" stop-color="#0088FF"/>
</linearGradient>
<linearGradient id="paint7_linear_2676_71" x1="48" y1="39" x2="52.918" y2="44.9016" gradientUnits="userSpaceOnUse">
<stop stop-color="#00CCFF"/>
<stop offset="1" stop-color="#0088FF"/>
</linearGradient>
<linearGradient id="paint8_linear_2676_71" x1="20" y1="15" x2="25.9016" y2="19.918" gradientUnits="userSpaceOnUse">
<stop stop-color="#00CCFF"/>
<stop offset="1" stop-color="#0088FF"/>
</linearGradient>
<linearGradient id="paint9_linear_2676_71" x1="60" y1="15" x2="65.9016" y2="19.918" gradientUnits="userSpaceOnUse">
<stop stop-color="#00CCFF"/>
<stop offset="1" stop-color="#0088FF"/>
</linearGradient>
</defs>
</svg>
